# xmcd
#
# Track frame offsets:
#	150
#	7122
#	77796
#	95694
#	113241
#	136669
#	146716
#	163618
#	175503
#	189259
#	209135
#	222710
#	235744
#
# Disc length: 3334 seconds
#
# Revision: 0
# Processed by: cddbd v1.5.2PL0 Copyright (c) Steve Scherf et al.
# Submitted via: dBpowerAMP V4.0
#
DISCID=b90d040d
DTITLE=tejano music - 13  aniversario
DYEAR=2004
DGENRE=Country
TTITLE0=inro
TTITLE1=presenteciom
TTITLE2=001
TTITLE3=004
TTITLE4=po
TTITLE5=touch
TTITLE6=te digo
TTITLE7=cool
TTITLE8=yuilli
TTITLE9=wer
TTITLE10=gttu
TTITLE11=mas
TTITLE12=oiul
EXTD=
EXTT0=
EXTT1=
EXTT2=
EXTT3=
EXTT4=
EXTT5=
EXTT6=
EXTT7=
EXTT8=
EXTT9=
EXTT10=
EXTT11=
EXTT12=
PLAYORDER=
